<svg width="14" height="16" viewBox="0 0 14 16" fill="none" xmlns="http://www.w3.org/2000/svg">
<path d="M0.328125 14.0392C0.328125 14.822 0.958768 15.4571 1.73607 15.4571H12.061C12.8383 15.4571 13.469 14.822 13.469 14.0392V6.0045H0.328125V14.0392ZM9.71443 8.2495C9.71443 8.05454 9.87283 7.89503 10.0664 7.89503H11.2397C11.4333 7.89503 11.5917 8.05454 11.5917 8.2495V9.43108C11.5917 9.62604 11.4333 9.78555 11.2397 9.78555H10.0664C9.87283 9.78555 9.71443 9.62604 9.71443 9.43108V8.2495ZM9.71443 12.0306C9.71443 11.8356 9.87283 11.6761 10.0664 11.6761H11.2397C11.4333 11.6761 11.5917 11.8356 11.5917 12.0306V13.2121C11.5917 13.4071 11.4333 13.5666 11.2397 13.5666H10.0664C9.87283 13.5666 9.71443 13.4071 9.71443 13.2121V12.0306ZM5.95991 8.2495C5.95991 8.05454 6.1183 7.89503 6.3119 7.89503H7.48519C7.67878 7.89503 7.83717 8.05454 7.83717 8.2495V9.43108C7.83717 9.62604 7.67878 9.78555 7.48519 9.78555H6.3119C6.1183 9.78555 5.95991 9.62604 5.95991 9.43108V8.2495ZM5.95991 12.0306C5.95991 11.8356 6.1183 11.6761 6.3119 11.6761H7.48519C7.67878 11.6761 7.83717 11.8356 7.83717 12.0306V13.2121C7.83717 13.4071 7.67878 13.5666 7.48519 13.5666H6.3119C6.1183 13.5666 5.95991 13.4071 5.95991 13.2121V12.0306ZM2.20539 8.2495C2.20539 8.05454 2.36378 7.89503 2.55737 7.89503H3.73066C3.92425 7.89503 4.08265 8.05454 4.08265 8.2495V9.43108C4.08265 9.62604 3.92425 9.78555 3.73066 9.78555H2.55737C2.36378 9.78555 2.20539 9.62604 2.20539 9.43108V8.2495ZM2.20539 12.0306C2.20539 11.8356 2.36378 11.6761 2.55737 11.6761H3.73066C3.92425 11.6761 4.08265 11.8356 4.08265 12.0306V13.2121C4.08265 13.4071 3.92425 13.5666 3.73066 13.5666H2.55737C2.36378 13.5666 2.20539 13.4071 2.20539 13.2121V12.0306ZM12.061 2.22344H10.6531V0.805548C10.6531 0.545601 10.4419 0.332916 10.1837 0.332916H9.24512C8.98699 0.332916 8.7758 0.545601 8.7758 0.805548V2.22344H5.02128V0.805548C5.02128 0.545601 4.81009 0.332916 4.55196 0.332916H3.61333C3.35521 0.332916 3.14402 0.545601 3.14402 0.805548V2.22344H1.73607C0.958768 2.22344 0.328125 2.85854 0.328125 3.64134V5.05924H13.469V3.64134C13.469 2.85854 12.8383 2.22344 12.061 2.22344Z" fill="white"/>
</svg>
