<svg width="16" height="16" viewBox="0 0 16 16" lass="booking-svg" xmlns="http://www.w3.org/2000/svg">
<path d="M7.56862 0.332916C3.42047 0.332916 0.0595703 3.71757 0.0595703 7.89503C0.0595703 12.0725 3.42047 15.4571 7.56862 15.4571C11.7168 15.4571 15.0777 12.0725 15.0777 7.89503C15.0777 3.71757 11.7168 0.332916 7.56862 0.332916ZM9.29751 11.0083L6.62696 9.05374C6.5331 8.9836 6.47859 8.87383 6.47859 8.75796V3.62609C6.47859 3.42484 6.6421 3.26018 6.84194 3.26018H8.2953C8.49514 3.26018 8.65864 3.42484 8.65864 3.62609V7.82489L10.5813 9.23364C10.7448 9.35256 10.7781 9.58126 10.66 9.74591L9.80619 10.929C9.68811 11.0906 9.46102 11.1272 9.29751 11.0083Z"/>
</svg>
