<svg width="19" height="19" viewBox="0 0 19 19" fill="none" xmlns="http://www.w3.org/2000/svg">
<path d="M11.5026 9.73531L17.739 3.13783C18.0122 2.84824 18.1656 2.45548 18.1656 2.04594C18.1656 1.6364 18.0122 1.24363 17.739 0.954046C17.4659 0.664459 17.0955 0.50177 16.7093 0.50177C16.3231 0.50177 15.9527 0.664459 15.6796 0.954046L9.45756 7.56691L3.23557 0.954046C2.96247 0.664459 2.59206 0.50177 2.20583 0.50177C1.8196 0.50177 1.44919 0.664459 1.17608 0.954046C0.902975 1.24363 0.749545 1.6364 0.749545 2.04594C0.749545 2.45548 0.902975 2.84824 1.17608 3.13783L7.41257 9.73531L1.17608 16.3328C1.04014 16.4758 0.932245 16.6458 0.858612 16.8332C0.78498 17.0207 0.74707 17.2217 0.74707 17.4247C0.74707 17.6277 0.78498 17.8287 0.858612 18.0161C0.932245 18.2035 1.04014 18.3736 1.17608 18.5166C1.31091 18.6607 1.47132 18.7751 1.64806 18.8532C1.8248 18.9313 2.01436 18.9715 2.20583 18.9715C2.39729 18.9715 2.58686 18.9313 2.7636 18.8532C2.94034 18.7751 3.10075 18.6607 3.23557 18.5166L9.45756 11.9037L15.6796 18.5166C15.8144 18.6607 15.9748 18.7751 16.1515 18.8532C16.3283 18.9313 16.5178 18.9715 16.7093 18.9715C16.9008 18.9715 17.0903 18.9313 17.2671 18.8532C17.4438 18.7751 17.6042 18.6607 17.739 18.5166C17.875 18.3736 17.9829 18.2035 18.0565 18.0161C18.1301 17.8287 18.1681 17.6277 18.1681 17.4247C18.1681 17.2217 18.1301 17.0207 18.0565 16.8332C17.9829 16.6458 17.875 16.4758 17.739 16.3328L11.5026 9.73531Z" fill="#395443"/>
</svg>
