<svg width="57" height="70" viewBox="0 0 57 70" fill="none" xmlns="http://www.w3.org/2000/svg">
<path d="M28.3921 2.07831C28.5014 2.72089 30.5909 14.9982 30.5909 19.6876C30.5909 26.838 26.7943 31.9376 21.1814 33.9884L22.9431 66.541C23.0387 68.4141 21.5502 70 19.6656 70H10.9253C9.05435 70 7.55212 68.4277 7.64772 66.541L9.40942 33.9884C3.78289 31.9376 0 26.8243 0 19.6876C0 14.9845 2.08947 2.72089 2.19872 2.07831C2.63573 -0.697068 8.38517 -0.738084 8.74025 2.2287V21.5333C8.91778 21.9982 10.8024 21.9708 10.9253 21.5333C11.1165 18.0744 12.0042 2.50214 12.0178 2.14667C12.4685 -0.697068 18.1224 -0.697068 18.5594 2.14667C18.5867 2.51581 19.4607 18.0744 19.6519 21.5333C19.7748 21.9708 21.6731 21.9982 21.837 21.5333V2.2287C22.192 -0.724412 27.9551 -0.697068 28.3921 2.07831V2.07831ZM44.6709 41.1388L42.6224 66.4453C42.4585 68.3594 43.9744 70 45.8863 70H53.534C55.3503 70 56.8116 68.5371 56.8116 66.7188V3.28144C56.8116 1.47675 55.3503 0.000195405 53.534 0.000195405C42.2673 0.000195405 23.2982 24.4044 44.6709 41.1388Z" fill="#393331"/>
</svg>
