<svg width="16" height="16" viewBox="0 0 16 16" class="booking-svg" xmlns="http://www.w3.org/2000/svg">
<path d="M7.69459 8.84029C10.0265 8.84029 11.9184 6.93499 11.9184 4.5866C11.9184 2.23821 10.0265 0.332916 7.69459 0.332916C5.36268 0.332916 3.47075 2.23821 3.47075 4.5866C3.47075 6.93499 5.36268 8.84029 7.69459 8.84029ZM11.4491 9.78555H9.83291C9.18174 10.0869 8.45723 10.2582 7.69459 10.2582C6.93196 10.2582 6.21038 10.0869 5.55628 9.78555H3.94007C1.86628 9.78555 0.185547 11.4782 0.185547 13.5666V14.0392C0.185547 14.822 0.816189 15.4571 1.59349 15.4571H13.7957C14.573 15.4571 15.2036 14.822 15.2036 14.0392V13.5666C15.2036 11.4782 13.5229 9.78555 11.4491 9.78555Z"/>
</svg>
