<svg width="106" height="93" viewBox="0 0 106 93" fill="none" xmlns="http://www.w3.org/2000/svg">
<path fill-rule="evenodd" clip-rule="evenodd" d="M50.6871 81.5438C40.1951 79.6785 28.6206 84.9625 19.5561 79.8446C10.055 74.4802 5.95473 64.2628 3.2861 54.7809C0.541926 45.0305 -1.51496 34.0856 4.31552 25.6931C9.98132 17.5376 22.8522 16.852 32.6405 12.5276C42.1155 8.34162 50.0149 -0.957132 60.6793 0.791887C71.3452 2.54117 75.2678 14.1015 83.0832 20.8005C90.6011 27.2446 103.512 30.3496 105.543 39.2471C107.574 48.146 96.1633 54.3566 92.6541 62.7282C88.6853 72.1963 94.0204 86.6475 83.7418 91.2559C73.4105 95.8878 62.3232 83.6125 50.6871 81.5438Z" fill="#FDEAE5"/>
</svg>
