<svg width="93" height="40" viewBox="0 0 93 40" fill="none" xmlns="http://www.w3.org/2000/svg">
<ellipse cx="46.4912" cy="19.8567" rx="44.252" ry="12.2922" fill="#FDEAE5"/>
<path d="M89.5091 12.2511C89.7532 13.6314 88.9958 15.2567 87.0871 17.0566C85.1986 18.8376 82.2971 20.6759 78.5732 22.4561C71.1329 26.013 60.5305 29.2811 48.5329 31.4023C36.5353 33.5234 25.455 34.0887 17.2462 33.2985C13.1377 32.9031 9.78173 32.171 7.39697 31.1456C4.98683 30.1092 3.71813 28.8421 3.47409 27.4618C3.23006 26.0815 3.98741 24.4562 5.8961 22.6563C7.78467 20.8753 10.6862 19.037 14.4101 17.2568C21.8503 13.6999 32.4528 10.4317 44.4504 8.31061C56.4479 6.18948 67.5282 5.62422 75.7371 6.41436C79.8456 6.80982 83.2015 7.54185 85.5863 8.56732C87.9964 9.60372 89.2651 10.8708 89.5091 12.2511Z" stroke="#393331" stroke-width="1.13467"/>
<path d="M27.4185 21.2842C27.2748 21.3976 27.0857 21.4506 26.889 21.4506C26.5259 21.4506 26.3292 21.2388 26.3292 20.8454V18.924H27.4109V18.1676H26.3292V17.2447H25.3837V18.1676H24.718V18.924H25.3837V20.8681C25.3837 21.7607 25.8905 22.2297 26.7755 22.2297C27.1159 22.2297 27.4563 22.1389 27.6832 21.9574L27.4185 21.2842ZM29.3613 18.7274V18.1373H28.4611V22.1768H29.4066V20.2176C29.4066 19.393 29.8605 18.9694 30.5791 18.9694C30.6472 18.9694 30.7153 18.977 30.7985 18.9921V18.092C30.1253 18.092 29.6336 18.3038 29.3613 18.7274ZM34.6229 18.1373L33.3445 21.1253L32.0736 18.1373H31.0903L32.8528 22.1919L32.7847 22.3507C32.6032 22.7517 32.4065 22.9105 32.0736 22.9105C31.8164 22.9105 31.5593 22.8046 31.3777 22.6306L30.9995 23.3266C31.2567 23.5611 31.6803 23.6972 32.0812 23.6972C32.7544 23.6972 33.2688 23.4173 33.6395 22.502L35.5306 18.1373H34.6229ZM43.3106 18.092C42.6676 18.092 42.1229 18.3491 41.7977 18.7652C41.5178 18.3113 41.0261 18.092 40.4361 18.092C39.8839 18.092 39.4149 18.2886 39.1123 18.6517V18.1373H38.2121V22.1768H39.1577V20.1268C39.1577 19.325 39.5813 18.9165 40.2091 18.9165C40.784 18.9165 41.1169 19.2644 41.1169 19.9831V22.1768H42.0624V20.1268C42.0624 19.325 42.4936 18.9165 43.1139 18.9165C43.6888 18.9165 44.0216 19.2644 44.0216 19.9831V22.1768H44.9672V19.862C44.9672 18.6442 44.2864 18.092 43.3106 18.092ZM48.9761 18.1373L47.6977 21.1253L46.4269 18.1373H45.4435L47.206 22.1919L47.1379 22.3507C46.9564 22.7517 46.7597 22.9105 46.4269 22.9105C46.1697 22.9105 45.9125 22.8046 45.7309 22.6306L45.3527 23.3266C45.6099 23.5611 46.0335 23.6972 46.4344 23.6972C47.1077 23.6972 47.6221 23.4173 47.9927 22.502L49.8838 18.1373H48.9761ZM52.5654 22.1768H53.5109V16.5639H52.5654V22.1768ZM57.7172 18.1373V20.1797C57.7172 20.9891 57.2709 21.3976 56.6128 21.3976C56.0152 21.3976 55.6673 21.0497 55.6673 20.3159V18.1373H54.7217V20.4445C54.7217 21.6624 55.4252 22.2297 56.4615 22.2297C56.9835 22.2297 57.46 22.033 57.7626 21.6624V22.1768H58.6628V18.1373H57.7172ZM61.7541 22.2297C62.5408 22.2297 63.1686 21.8893 63.4788 21.2842L62.7526 20.8605C62.5105 21.2463 62.1474 21.4203 61.7465 21.4203C61.0506 21.4203 60.5211 20.9438 60.5211 20.1571C60.5211 19.3779 61.0506 18.8938 61.7465 18.8938C62.1474 18.8938 62.5105 19.0678 62.7526 19.4536L63.4788 19.0299C63.1686 18.4172 62.5408 18.092 61.7541 18.092C60.4757 18.092 59.568 18.9467 59.568 20.1571C59.568 21.3674 60.4757 22.2297 61.7541 22.2297ZM67.3077 22.1768H68.4575L66.6118 19.8318L68.2986 18.1373H67.164L65.2048 19.9528V16.5639H64.2592V22.1768H65.2048V21.1102L65.9083 20.4445L67.3077 22.1768Z" fill="#C27060"/>
</svg>
