<svg width="92" height="41" viewBox="0 0 92 41" fill="none" xmlns="http://www.w3.org/2000/svg">
<ellipse cx="46.0386" cy="20.348" rx="44.1118" ry="12.2533" fill="#FDEAE5"/>
<path d="M88.9204 12.7661C89.1637 14.1421 88.4087 15.7622 86.5061 17.5564C84.6235 19.3318 81.7312 21.1643 78.0191 22.9388C70.6024 26.4844 60.0335 29.7422 48.074 31.8566C36.1144 33.971 25.0692 34.5345 16.8864 33.7469C12.7909 33.3527 9.44557 32.623 7.06838 31.6007C4.66587 30.5676 3.40119 29.3046 3.15792 27.9286C2.91466 26.5527 3.66962 24.9326 5.57225 23.1383C7.45485 21.363 10.3472 19.5305 14.0592 17.7559C21.476 14.2104 32.0448 10.9525 44.0044 8.83813C55.9639 6.72372 67.0091 6.16026 75.192 6.94789C79.2875 7.3421 82.6328 8.0718 85.01 9.09403C87.4125 10.1271 88.6772 11.3902 88.9204 12.7661Z" stroke="#393331" stroke-width="1.13107"/>
<path d="M43.6889 22.7364C44.9407 22.7364 45.838 21.8768 45.838 20.6703C45.838 19.4638 44.9407 18.6117 43.6889 18.6117C42.4523 18.6117 41.5474 19.4638 41.5474 20.6703C41.5474 21.8768 42.4523 22.7364 43.6889 22.7364ZM43.6889 21.9295C43.0103 21.9295 42.4975 21.4394 42.4975 20.6703C42.4975 19.9012 43.0103 19.411 43.6889 19.411C44.3751 19.411 44.8879 19.9012 44.8879 20.6703C44.8879 21.4394 44.3751 21.9295 43.6889 21.9295ZM49.7781 22.6836H50.9243L49.0844 20.346L50.7659 18.657H49.6348L47.6818 20.4667V17.0886H46.7393V22.6836H47.6818V21.6204L48.3831 20.9568L49.7781 22.6836Z" fill="#C27060"/>
</svg>
