<svg width="146" height="64" viewBox="0 0 146 64" fill="none" xmlns="http://www.w3.org/2000/svg">
<ellipse cx="73.022" cy="32.1612" rx="70.2847" ry="19.5235" fill="#FDEAE5"/>
<path d="M141.345 20.0819C141.733 22.2742 140.53 24.8556 137.499 27.7144C134.499 30.5431 129.891 33.4629 123.976 36.2903C112.159 41.9396 95.3191 47.1304 76.2635 50.4993C57.208 53.8683 39.6093 54.7661 26.5714 53.5111C20.0459 52.883 14.7157 51.7204 10.9281 50.0916C7.1001 48.4455 5.08503 46.4331 4.69743 44.2407C4.30984 42.0484 5.51273 39.467 8.54426 36.6082C11.5439 33.7795 16.1523 30.8597 22.0668 28.0323C33.8841 22.383 50.7238 17.1922 69.7793 13.8233C88.8349 10.4543 106.434 9.55651 119.471 10.8115C125.997 11.4396 131.327 12.6022 135.115 14.231C138.943 15.8771 140.958 17.8895 141.345 20.0819Z" stroke="#393331" stroke-width="1.80217"/>
<path d="M36.6251 31.2498V30.3127H35.1953V36.7284H36.6972V33.6166C36.6972 32.3071 37.418 31.6343 38.5594 31.6343C38.6675 31.6343 38.7757 31.6463 38.9078 31.6703V30.2406C37.8385 30.2406 37.0576 30.577 36.6251 31.2498ZM46.1544 33.5566C46.1544 31.5502 44.7848 30.2406 42.9105 30.2406C41.0002 30.2406 39.5945 31.6102 39.5945 33.5205C39.5945 35.4308 40.9882 36.8125 43.1388 36.8125C44.2441 36.8125 45.1452 36.4521 45.7219 35.7672L44.9169 34.8421C44.4604 35.3107 43.8957 35.539 43.1748 35.539C42.0575 35.539 41.2765 34.9382 41.0963 34.0011H46.1304C46.1424 33.8569 46.1544 33.6767 46.1544 33.5566ZM42.9105 31.442C43.8957 31.442 44.6046 32.0788 44.7247 33.0039H41.0843C41.2285 32.0668 41.9373 31.442 42.9105 31.442ZM52.4388 30.3127V31.1537C51.9342 30.5409 51.1893 30.2406 50.3123 30.2406C48.438 30.2406 47.0684 31.5381 47.0684 33.5205C47.0684 35.5149 48.438 36.8125 50.3123 36.8125C51.1293 36.8125 51.8501 36.5362 52.3668 35.9475V39.0592H53.8686V30.3127H52.4388ZM50.4805 35.5269C49.3992 35.5269 48.5822 34.746 48.5822 33.5205C48.5822 32.2951 49.3992 31.5141 50.4805 31.5141C51.5738 31.5141 52.3908 32.2951 52.3908 33.5205C52.3908 34.746 51.5738 35.5269 50.4805 35.5269ZM60.5432 30.3127V33.5566C60.5432 34.8421 59.8343 35.4909 58.789 35.4909C57.8399 35.4909 57.2872 34.9382 57.2872 33.7728V30.3127H55.7854V33.9771C55.7854 35.9114 56.9028 36.8125 58.5488 36.8125C59.3778 36.8125 60.1347 36.5001 60.6152 35.9114V36.7284H62.045V30.3127H60.5432ZM70.0426 33.5566C70.0426 31.5502 68.6729 30.2406 66.7987 30.2406C64.8884 30.2406 63.4827 31.6102 63.4827 33.5205C63.4827 35.4308 64.8764 36.8125 67.0269 36.8125C68.1323 36.8125 69.0334 36.4521 69.6101 35.7672L68.8051 34.8421C68.3485 35.3107 67.7839 35.539 67.063 35.539C65.9456 35.539 65.1647 34.9382 64.9845 34.0011H70.0185C70.0306 33.8569 70.0426 33.6767 70.0426 33.5566ZM66.7987 31.442C67.7839 31.442 68.4927 32.0788 68.6129 33.0039H64.9725C65.1166 32.0668 65.8255 31.442 66.7987 31.442ZM73.4675 36.8125C75.2697 36.8125 76.375 36.0316 76.375 34.8301C76.375 32.3191 72.4103 33.4725 72.4103 32.1749C72.4103 31.7544 72.8428 31.454 73.7559 31.454C74.3686 31.454 74.9814 31.5742 75.5941 31.9346L76.1708 30.7932C75.5941 30.4448 74.6209 30.2406 73.7679 30.2406C72.0378 30.2406 70.9445 31.0335 70.9445 32.247C70.9445 34.8061 74.9093 33.6527 74.9093 34.8782C74.9093 35.3227 74.5128 35.587 73.5637 35.587C72.7587 35.587 71.8936 35.3227 71.329 34.9503L70.7523 36.0916C71.329 36.5001 72.3983 36.8125 73.4675 36.8125ZM81.1045 35.3107C80.8763 35.4909 80.5759 35.575 80.2635 35.575C79.6868 35.575 79.3744 35.2386 79.3744 34.6138V31.5622H81.0925V30.3607H79.3744V28.895H77.8726V30.3607H76.8154V31.5622H77.8726V34.6499C77.8726 36.0676 78.6776 36.8125 80.0833 36.8125C80.6239 36.8125 81.1646 36.6683 81.525 36.38L81.1045 35.3107ZM89.7213 30.2406C88.7841 30.2406 88.0032 30.553 87.5106 31.1417V30.3127H86.0809V36.7284H87.5827V33.4845C87.5827 32.1989 88.3035 31.5502 89.3728 31.5502C90.334 31.5502 90.8987 32.1028 90.8987 33.2442V36.7284H92.4005V33.052C92.4005 31.1176 91.2591 30.2406 89.7213 30.2406ZM97.2478 36.8125C99.2422 36.8125 100.672 35.4428 100.672 33.5205C100.672 31.5982 99.2422 30.2406 97.2478 30.2406C95.2774 30.2406 93.8356 31.5982 93.8356 33.5205C93.8356 35.4428 95.2774 36.8125 97.2478 36.8125ZM97.2478 35.5269C96.1665 35.5269 95.3495 34.746 95.3495 33.5205C95.3495 32.2951 96.1665 31.5141 97.2478 31.5141C98.3411 31.5141 99.1581 32.2951 99.1581 33.5205C99.1581 34.746 98.3411 35.5269 97.2478 35.5269ZM110.606 30.3127L108.864 35.0704L107.134 30.3127H105.873L104.107 35.0464L102.413 30.3127H100.995L103.35 36.7284H104.791L106.473 32.3071L108.131 36.7284H109.573L111.94 30.3127H110.606Z" fill="#C27060"/>
</svg>
